<svg xmlns="http://www.w3.org/2000/svg" width="100%" height="auto" viewBox="0 0 1024 576" version="1.1">
	<path d="M -0 98.329 L -0 196.657 8.250 195.335 C 42.547 189.839, 89.514 187.613, 122.500 189.919 C 177.907 193.793, 222.471 203.682, 316 232.857 C 377.988 252.193, 407.959 259.290, 439 261.985 C 475.890 265.187, 500.849 261.251, 540.500 245.978 C 565.364 236.401, 590.187 231.956, 622.760 231.246 C 669.411 230.230, 698.757 235.057, 797.500 259.991 C 884.812 282.038, 902.286 285.246, 935.500 285.321 C 970.558 285.401, 993.597 278.641, 1016.173 261.649 L 1023.674 256.003 1024.337 210.837 C 1024.702 185.996, 1025 128.396, 1025 82.836 L 1025 0 512.500 0 L 0 0 -0 98.329 M 0.481 99 C 0.481 153.175, 0.602 175.337, 0.750 148.250 C 0.898 121.162, 0.898 76.837, 0.750 49.750 C 0.602 22.662, 0.481 44.825, 0.481 99 M 351.573 30.570 C 350.709 31.433, 349.762 33.121, 349.467 34.320 C 349.172 35.519, 349.059 62.974, 349.216 95.331 C 349.491 152.239, 349.563 154.208, 351.441 155.581 C 354.461 157.788, 361.326 157.402, 363.595 154.897 C 365.339 152.971, 365.542 150.542, 366 126.147 C 366.487 100.217, 366.564 99.397, 368.891 95.654 C 374.136 87.217, 385.483 82.614, 395.395 84.902 C 402.556 86.555, 406.273 89.260, 409.577 95.225 L 412.500 100.500 413 127.333 C 413.468 152.424, 413.626 154.257, 415.441 155.583 C 417.939 157.406, 424.062 157.406, 426.559 155.582 C 428.370 154.259, 428.521 152.568, 428.817 130.332 C 429.257 97.239, 427.343 89.344, 416.371 78.966 C 408.581 71.599, 403.547 69.659, 392 69.572 C 381.382 69.492, 377.388 70.944, 370.084 77.543 C 367.979 79.444, 366.087 81, 365.879 81.001 C 365.670 81.002, 365.641 72.339, 365.814 61.751 C 366.164 40.264, 365.570 32.713, 363.357 30.499 C 361.343 28.485, 353.611 28.532, 351.573 30.570 M 62.225 30.709 C 56.860 31.739, 56.931 30.833, 57.227 94.941 C 57.491 152.242, 57.563 154.208, 59.441 155.581 C 62.317 157.683, 136.684 157.683, 139.559 155.581 C 141.860 153.898, 142.296 145.897, 140.201 143.800 C 139.210 142.808, 131.159 142.382, 106.201 142 L 73.500 141.500 72.978 87 C 72.692 57.025, 72.354 32.432, 72.228 32.348 C 71.476 31.847, 65.599 30.023, 65.101 30.136 C 64.770 30.211, 63.476 30.469, 62.225 30.709 M 188 69.362 C 174.822 72.225, 163.449 81.265, 157.253 93.803 C 153.568 101.259, 153.500 101.605, 153.500 113 C 153.500 124.375, 153.573 124.752, 157.218 132.127 C 165.537 148.959, 182.653 159.077, 200.500 157.712 C 239.149 154.756, 256.258 106.823, 228.003 80.663 C 220.850 74.041, 213.675 70.417, 205 69.044 C 197.095 67.793, 195.049 67.831, 188 69.362 M 782.032 69.309 C 780.124 69.917, 776.412 72.489, 773.782 75.023 L 769 79.632 769 75.939 C 769 71.559, 767.417 70, 762.274 69.310 C 759.416 68.927, 757.851 69.300, 755.985 70.810 L 753.500 72.821 753.188 109.161 C 752.861 147.296, 753.163 153.020, 755.631 155.488 C 757.317 157.175, 764.630 157.519, 767 156.023 C 768.260 155.228, 768.580 150.301, 769 125.288 C 769.456 98.119, 769.670 95.219, 771.436 92.301 C 773.734 88.502, 777.238 85.780, 781.899 84.172 C 786.750 82.499, 790.016 82.714, 794.500 85 C 796.658 86.100, 799.599 87, 801.037 87 C 804.288 87, 807.765 83.425, 808.607 79.217 C 809.146 76.518, 808.771 75.589, 806.151 73.141 C 801.128 68.449, 790.187 66.711, 782.032 69.309 M 855.741 69.368 C 851.149 71.081, 849.385 72.343, 845.443 76.732 L 842.386 80.136 842.758 76.818 C 843.345 71.589, 841.131 69.500, 835 69.500 C 826.640 69.500, 827 67.535, 827 113.191 C 827 151.667, 827.067 153.067, 829 155 C 831.562 157.562, 839.108 157.779, 841.128 155.349 C 842.196 154.063, 842.611 147.129, 843 124.018 L 843.500 94.339 846.302 90.668 C 851.642 83.672, 860.918 81.191, 867.978 84.871 C 873.311 87.651, 876.530 87.560, 879.545 84.545 C 882.429 81.662, 882.870 76.013, 880.405 73.548 C 875.606 68.749, 863.087 66.627, 855.741 69.368 M 961.206 69.750 C 960.098 70.713, 954.018 83.137, 947.696 97.359 L 936.201 123.218 932.781 117.859 C 930.900 114.912, 923.806 103.725, 917.017 93 C 910.227 82.275, 903.767 72.487, 902.662 71.250 C 900.154 68.443, 896.728 68.387, 892.368 71.082 C 889.203 73.038, 888.477 74.502, 888.969 77.942 C 889.083 78.735, 897.751 92.659, 908.232 108.885 C 918.713 125.111, 927.472 139.089, 927.696 139.947 C 927.921 140.805, 923.806 151.103, 918.552 162.831 C 913.298 174.560, 909 185.176, 909 186.423 C 909 187.670, 909.788 189.371, 910.750 190.203 C 913.521 192.600, 918.946 194.099, 920.956 193.024 C 923.207 191.819, 974.227 77.589, 973.807 74.692 C 973.469 72.355, 967.713 68, 964.963 68 C 964.005 68, 962.315 68.787, 961.206 69.750 M 288.265 70.542 C 265.401 76.699, 252.138 97.053, 255.875 120.250 C 259.466 142.544, 276.865 157, 300.105 157 C 314.706 157, 333 147.567, 333 140.038 C 333 136.884, 327.991 131, 325.307 131 C 324.461 131, 321.619 132.578, 318.992 134.506 C 311.856 139.744, 307.567 141.198, 299.349 141.166 C 290.452 141.131, 284.799 138.856, 279.155 133.040 C 273.663 127.381, 271.626 120.951, 272.213 111.127 C 272.730 102.480, 274.933 97.278, 280.162 92.362 C 285.153 87.670, 289.737 85.752, 297.245 85.215 C 305.129 84.650, 310.109 86.195, 317.618 91.533 C 320.300 93.440, 323.542 95, 324.824 95 C 327.382 95, 333 89.999, 333 87.721 C 333 84.964, 326.216 77.436, 321.379 74.824 C 310.833 69.130, 299.126 67.616, 288.265 70.542 M 472.286 70.393 C 458.092 75.022, 447.087 87.662, 443.896 103 C 442.358 110.394, 443.305 123.223, 445.889 130 C 450.235 141.399, 460.818 151.438, 471.876 154.652 C 479.285 156.806, 492.810 156.122, 499.176 153.272 C 501.747 152.120, 505.910 149.281, 508.426 146.962 L 513 142.745 513 165.682 C 513 192.539, 512.988 192.500, 521 192.500 C 524.955 192.500, 526.493 192.046, 527.581 190.559 C 529.774 187.559, 529.691 73.834, 527.494 71.637 C 525.306 69.449, 522.295 68.722, 518.425 69.448 C 514.382 70.207, 513 72.398, 513 78.051 L 513 82.233 508.870 78.502 C 502.171 72.449, 494.914 69.656, 485 69.313 C 479.717 69.130, 474.905 69.539, 472.286 70.393 M 552 69.694 C 548.266 71.029, 548 72.844, 548 97.007 C 548 110.001, 548.489 123.303, 549.087 126.566 C 551.274 138.505, 558.334 148.016, 569.214 153.683 C 573.935 156.141, 575.570 156.439, 584.500 156.468 C 596.004 156.505, 599.845 155.032, 607.892 147.502 L 612.500 143.190 612.149 148.155 C 611.691 154.643, 613.650 157, 619.500 157 C 627.278 157, 627 158.624, 627 113.171 C 627 74.333, 626.934 72.934, 625 71 C 622.618 68.618, 617.356 68.362, 614.332 70.480 C 612.294 71.908, 612.204 72.874, 611.799 97.730 C 611.330 126.538, 610.963 128.359, 604.219 135.280 C 595.809 143.911, 579.217 144.217, 570.896 135.896 C 564.770 129.770, 564.002 125.512, 563.985 97.568 C 563.976 84.331, 563.639 73.005, 563.235 72.400 C 561.382 69.626, 555.892 68.303, 552 69.694 M 676 70.539 C 654.856 76.443, 641.077 98.330, 644.808 120.087 C 648.721 142.906, 667.271 158.327, 688.845 156.695 C 697.972 156.005, 707.086 151.861, 712.392 145.987 L 716 141.994 716 147.940 C 716 152.951, 716.350 154.131, 718.223 155.443 C 721.069 157.437, 725.931 157.437, 728.777 155.443 L 731 153.887 731 113.443 C 731 73.594, 730.969 72.969, 728.884 70.884 C 727.178 69.178, 725.973 68.874, 722.669 69.318 C 717.458 70.017, 716 72.066, 716 78.694 L 716 84.006 712.377 79.995 C 704.473 71.246, 688.415 67.072, 676 70.539 M 187.324 85.638 C 181.979 87.532, 174.541 94.074, 171.711 99.372 C 169.882 102.796, 169.506 105.120, 169.506 113 C 169.506 123.597, 170.969 127.607, 177.109 133.830 C 183.051 139.853, 187.392 141.485, 197.500 141.493 C 205.509 141.499, 207.011 141.199, 211.145 138.770 C 223.327 131.608, 228.967 116.449, 224.478 102.934 C 219.631 88.341, 202.371 80.306, 187.324 85.638 M 479.398 84.892 C 470.666 87.130, 462.224 94.932, 460.046 102.775 C 458.166 109.543, 458.767 119.959, 461.356 125.500 C 464.437 132.093, 470.271 137.597, 476.301 139.600 C 482.261 141.580, 491.952 141.136, 497.108 138.648 C 517.038 129.030, 517.415 96.628, 497.706 87.103 C 492.923 84.791, 483.995 83.713, 479.398 84.892 M 681.500 84.876 C 672.157 87.305, 664.342 94.444, 661.431 103.209 C 659.234 109.822, 659.864 120.901, 662.758 126.545 C 665.476 131.847, 672.669 138.399, 677.584 140.052 C 682.860 141.825, 693.673 141.687, 698.073 139.791 C 703.433 137.480, 708.813 132.291, 711.760 126.590 C 715.406 119.539, 715.560 107.948, 712.112 100.258 C 709.550 94.547, 703.688 88.603, 698.463 86.420 C 694.264 84.665, 685.411 83.860, 681.500 84.876 M 86.186 318.118 C 65.295 321.594, 49 342.137, 49 365 C 49 378.656, 53.978 390.061, 63.981 399.322 C 93.609 426.753, 139 405.716, 139 364.554 C 139 351.288, 135.029 341.311, 125.839 331.487 C 119.004 324.180, 110.560 319.619, 101 318.069 C 93.719 316.889, 93.572 316.889, 86.186 318.118 M 325.200 318.200 C 324.354 319.046, 324 324.799, 324 337.693 L 324 355.987 319.435 352.503 C 304.462 341.073, 283.783 346.386, 275.314 363.839 C 272.953 368.704, 272.562 370.766, 272.534 378.500 C 272.504 386.321, 272.858 388.229, 275.234 393.068 C 284.146 411.215, 305.543 416.643, 319.859 404.388 L 324 400.844 324 404.722 C 324 406.855, 324.540 409.140, 325.200 409.800 C 326.750 411.350, 332.250 411.350, 333.800 409.800 C 335.527 408.073, 335.527 319.927, 333.800 318.200 C 333.140 317.540, 331.205 317, 329.500 317 C 327.795 317, 325.860 317.540, 325.200 318.200 M 623.108 318.018 C 612.201 320.318, 600.255 328.320, 594.063 337.477 C 587.893 346.602, 585.459 358.241, 587.062 370.954 C 588.315 380.881, 592.499 389.574, 599.614 397.034 C 609.332 407.223, 621.140 411.611, 636.648 410.797 C 643.634 410.430, 646.017 409.801, 652.430 406.632 C 656.585 404.579, 660.476 401.980, 661.077 400.856 C 662.561 398.083, 661.465 394.351, 658.618 392.485 C 656.410 391.039, 655.818 391.175, 648.884 394.723 C 641.946 398.272, 640.957 398.499, 632.500 398.484 C 621.679 398.465, 615 395.836, 608.238 388.932 C 600.963 381.505, 599.500 377.331, 599.500 364 C 599.500 353.463, 599.723 352.081, 602.164 347.500 C 605.741 340.784, 611.252 335.676, 618.500 332.358 C 623.552 330.045, 625.810 329.618, 632.794 329.658 C 640.307 329.700, 641.764 330.048, 648.294 333.357 C 652.257 335.365, 655.984 337.007, 656.576 337.004 C 658.384 336.997, 662 332.500, 662 330.258 C 662 327.405, 655.796 322.451, 649 319.875 C 642.739 317.503, 629.916 316.583, 623.108 318.018 M 232.035 326.934 C 231.466 327.998, 231 333.173, 231 338.434 L 231 348 226.571 348 C 219.990 348, 217.231 351.827, 220.035 357.066 C 220.845 358.579, 222.150 359, 226.035 359 L 231 359 231 375.451 C 231 398.657, 232.674 404.712, 240.163 408.584 C 244.287 410.717, 256.484 411.673, 258.475 410.021 C 260.313 408.495, 260.497 402.636, 258.750 401.260 C 258.063 400.718, 255.052 399.999, 252.060 399.662 C 243.541 398.702, 243.547 398.718, 243.189 377.507 L 242.877 359.080 251.667 358.790 C 260.216 358.508, 260.483 358.426, 261.407 355.790 C 262.052 353.953, 261.985 352.262, 261.200 350.540 C 260.093 348.109, 259.677 348, 251.521 348 L 243 348 243 337.700 C 243 331.022, 242.578 326.978, 241.800 326.200 C 239.805 324.205, 233.231 324.700, 232.035 326.934 M 830.713 325.621 C 830.321 326.013, 830 331.208, 830 337.167 L 830 348 825.122 348 C 819.260 348, 817.755 349.449, 818.185 354.680 L 818.500 358.500 824.250 358.800 L 830 359.100 830 378.338 C 830 396.317, 830.147 397.864, 832.250 401.980 C 835.123 407.603, 839.908 410.117, 848.973 410.766 C 855.515 411.234, 855.859 411.145, 857.560 408.549 C 858.913 406.483, 859.110 405.214, 858.394 403.173 C 857.576 400.843, 856.753 400.418, 851.978 399.864 C 841.416 398.639, 841.500 398.831, 841.500 376 L 841.500 359.500 849.453 359.204 C 853.827 359.042, 857.989 358.424, 858.703 357.832 C 859.416 357.240, 860 355.290, 860 353.500 C 860 351.710, 859.416 349.760, 858.703 349.168 C 857.989 348.576, 853.827 347.958, 849.453 347.796 L 841.500 347.500 841 336.500 L 840.500 325.500 835.963 325.204 C 833.467 325.041, 831.105 325.229, 830.713 325.621 M 89.361 330.098 C 78.915 331.433, 69.220 339.036, 64.135 349.880 C 61.856 354.740, 61.504 356.784, 61.533 365 C 61.562 373.442, 61.888 375.143, 64.459 380.278 C 67.883 387.116, 75.210 394.304, 81.783 397.271 C 88.843 400.459, 99.694 400.265, 107.148 396.817 C 114.320 393.499, 120.470 387.362, 123.852 380.148 C 126.163 375.218, 126.500 373.228, 126.499 364.500 C 126.499 355.494, 126.222 353.974, 123.714 349.214 C 116.263 335.069, 103.973 328.230, 89.361 330.098 M 524.500 346.013 C 519.537 346.753, 516.737 348.248, 514.148 351.539 L 512.142 354.090 511.821 351.326 C 511.615 349.551, 510.517 348.016, 508.750 347.032 C 506.279 345.656, 505.721 345.656, 503.250 347.038 L 500.500 348.576 500.235 378.202 C 499.945 410.710, 499.995 411, 505.880 411 C 511.793 411, 511.899 410.585, 512.213 386.267 L 512.500 364.034 515.657 360.879 C 519.603 356.936, 526.847 355.835, 531.843 358.419 C 535.433 360.275, 538.163 359.433, 540.062 355.884 C 543.334 349.771, 534.951 344.454, 524.500 346.013 M 968.310 346.139 C 963.464 346.990, 959.426 349.378, 957.736 352.392 C 956.622 354.379, 956.524 354.304, 956.027 351.079 C 955.403 347.030, 951.931 345.315, 947.651 346.942 L 945 347.950 945 378.275 C 945 400.528, 945.319 408.919, 946.200 409.800 C 947.750 411.350, 953.250 411.350, 954.800 409.800 C 955.655 408.945, 956 402.748, 956 388.268 C 956 365.450, 956.644 362.407, 962.190 359.026 C 966.172 356.598, 971.976 356.419, 976.184 358.595 C 979.073 360.089, 979.434 360.067, 981.884 358.246 C 985.637 355.457, 985.946 350.666, 982.518 348.420 C 979.041 346.142, 973.424 345.240, 968.310 346.139 M 152.305 347.020 C 149.176 348.267, 148.658 352.506, 149.207 372.367 C 149.618 387.230, 149.973 390.163, 151.891 394.500 C 159.449 411.591, 179.782 416.308, 193.309 404.109 L 197.310 400.500 196.628 404.152 C 195.804 408.563, 197.716 411, 202 411 C 207.934 411, 208 410.652, 208 379.363 C 208 362.794, 207.593 350.107, 207.026 349.049 C 205.602 346.388, 201.262 345.598, 198.394 347.477 C 196.011 349.039, 196 349.134, 196 367.555 C 196 381.047, 195.627 386.936, 194.623 389.282 C 189.273 401.786, 169.581 403.366, 163.313 391.794 C 161.813 389.026, 161.472 385.355, 161.174 368.798 C 160.934 355.436, 160.447 348.798, 159.660 348.170 C 157.679 346.589, 154.596 346.107, 152.305 347.020 M 369.353 347.373 C 355.467 351.911, 346.157 365.977, 347.219 380.814 C 348.109 393.256, 354.457 402.638, 365.744 408.195 C 371.524 411.040, 373.402 411.469, 379.952 411.437 C 391.144 411.384, 399.551 407.078, 406.255 397.965 C 410.311 392.454, 412.099 386.414, 412.106 378.211 C 412.115 365.747, 405.559 354.959, 394.500 349.243 C 388.443 346.112, 376.033 345.189, 369.353 347.373 M 442.357 348.082 C 435.057 350.889, 428.663 356.908, 424.935 364.481 C 422.003 370.437, 421.820 371.439, 422.160 379.679 C 422.594 390.197, 425.060 395.957, 431.785 402.156 C 442.156 411.715, 456.691 414.321, 468.208 408.686 C 475.407 405.164, 482.221 397.683, 485.044 390.202 C 489.652 377.992, 485.920 362.501, 476.341 354.069 C 467.431 346.226, 453.544 343.780, 442.357 348.082 M 699.223 347.062 C 693.141 348.261, 685.347 352.776, 681.399 357.389 C 675.986 363.713, 673.726 371, 674.232 380.500 C 675.359 401.646, 692.152 414.426, 714.348 411.029 C 721.992 409.859, 729.739 406.577, 731.404 403.803 C 732.089 402.662, 732.095 401.186, 731.423 399.303 C 730.221 395.937, 728.085 395.858, 720 398.879 C 706.849 403.794, 692.299 399.452, 687.795 389.269 C 684.536 381.902, 684.271 382, 707.518 382 C 730.902 382, 733.022 381.494, 735.019 375.442 C 736.644 370.520, 735.509 364.194, 732.012 358.679 C 725.845 348.956, 712.895 344.368, 699.223 347.062 M 751.250 347.522 C 749.004 349.111, 749 349.167, 749 378.402 C 749 405.506, 749.136 407.813, 750.829 409.345 C 753.139 411.435, 757.380 411.477, 759.429 409.429 C 760.739 408.118, 761 404.916, 761 390.172 C 761 380.445, 761.439 370.955, 761.976 369.083 C 763.966 362.143, 770.249 357.860, 778.548 357.786 C 785.565 357.723, 790.740 360.427, 793.435 365.565 C 795.279 369.079, 795.533 371.588, 795.804 389 C 796.064 405.647, 796.348 408.683, 797.745 409.750 C 800.520 411.869, 804.776 411.272, 806.585 408.511 C 807.989 406.367, 808.156 403.415, 807.780 387.261 C 807.279 365.679, 805.871 360.157, 799.256 353.819 C 793.442 348.249, 789.476 346.633, 781.500 346.584 C 773.612 346.536, 769.719 348.097, 763.950 353.618 L 760.400 357.016 760.765 353.758 C 761.418 347.941, 755.833 344.281, 751.250 347.522 M 893.500 347.349 C 886.646 349.121, 882.608 351.392, 877.846 356.154 C 871.513 362.487, 869.511 367.850, 869.505 378.500 C 869.501 386.339, 869.861 388.236, 872.300 393.203 C 875.855 400.442, 883.365 407.293, 890.280 409.604 C 901.024 413.195, 918.643 410.971, 925.091 405.210 C 927.807 402.783, 928.023 402.190, 927.083 399.719 C 925.589 395.788, 923.459 395.375, 918.144 397.984 C 907.660 403.131, 893.748 401.422, 886.608 394.111 C 883.186 390.606, 880.401 383.933, 881.783 382.550 C 882.086 382.248, 891.506 382, 902.716 382 C 924.899 382, 927.557 381.463, 929.805 376.528 C 933.973 367.381, 927.053 354.041, 915.470 348.892 C 910.019 346.469, 899.705 345.745, 893.500 347.349 M 372.625 358.469 C 367.920 360.146, 362.255 365.351, 360.381 369.718 C 358.170 374.869, 358.614 383.954, 361.327 389.093 C 368.986 403.600, 390.556 403.591, 397.960 389.078 C 402.592 379.998, 401.350 370.473, 394.623 363.489 C 388.658 357.296, 380.889 355.523, 372.625 358.469 M 447.558 358.435 C 436.710 362.457, 431.280 372.662, 433.986 383.941 C 438.424 402.440, 463.840 405.825, 472.673 389.093 C 476.613 381.631, 475.433 369.454, 470.212 363.680 C 465.430 358.392, 454.500 355.861, 447.558 358.435 M 696.234 359.571 C 691.007 362.176, 687.766 366.057, 686.464 371.272 L 685.772 374.044 705.136 373.772 L 724.500 373.500 724.389 369.787 C 724.240 364.792, 721.700 361.221, 716.672 358.938 C 710.541 356.154, 702.596 356.400, 696.234 359.571 M 892.500 358.896 C 887.204 361.348, 883.030 365.934, 882.020 370.410 L 881.201 374.042 900.351 373.771 L 919.500 373.500 919.772 370.500 C 920.147 366.365, 916.871 361.485, 912.079 359.040 C 906.923 356.410, 898.012 356.344, 892.500 358.896 M 295.466 359.400 C 291.148 361.281, 286.355 366.393, 284.968 370.598 C 284.314 372.578, 283.962 377.069, 284.186 380.578 C 284.910 391.952, 292.482 399.286, 303.500 399.286 C 310.347 399.286, 315.607 396.587, 319.500 391.075 C 322.242 387.194, 322.500 386.124, 322.500 378.664 C 322.500 371.616, 322.160 369.997, 320.009 366.817 C 316.063 360.983, 310.626 357.993, 304.050 358.039 C 300.997 358.061, 297.135 358.673, 295.466 359.400" stroke="none" fill="#0398fc" fill-rule="evenodd"/>
</svg>